<svg xmlns="http://www.w3.org/2000/svg" height="1024" width="1024" viewBox="0 0 37 37"><path fill="#A192FD" d="M2 2h7v1H2zM13 2h1v1H13zM17 2h4v1H17zM23 2h2v1H23zM26 2h1v1H26zM28,2 h7v1H28zM2 3h1v1H2zM8 3h1v1H8zM11 3h3v1H11zM15 3h8v1H15zM24 3h1v1H24zM26 3h1v1H26zM28 3h1v1H28zM34,3 h1v1H34zM2 4h1v1H2zM4 4h3v1H4zM8 4h1v1H8zM10 4h5v1H10zM16 4h1v1H16zM20 4h2v1H20zM23 4h4v1H23zM28 4h1v1H28zM30 4h3v1H30zM34,4 h1v1H34zM2 5h1v1H2zM4 5h3v1H4zM8 5h1v1H8zM10 5h1v1H10zM12 5h1v1H12zM16 5h2v1H16zM23 5h1v1H23zM25 5h1v1H25zM28 5h1v1H28zM30 5h3v1H30zM34,5 h1v1H34zM2 6h1v1H2zM4 6h3v1H4zM8 6h1v1H8zM11 6h1v1H11zM13 6h5v1H13zM26 6h1v1H26zM28 6h1v1H28zM30 6h3v1H30zM34,6 h1v1H34zM2 7h1v1H2zM8 7h1v1H8zM12 7h1v1H12zM16 7h2v1H16zM19 7h4v1H19zM25 7h2v1H25zM28 7h1v1H28zM34,7 h1v1H34zM2 8h7v1H2zM10 8h1v1H10zM12 8h1v1H12zM14 8h1v1H14zM16 8h1v1H16zM18 8h1v1H18zM20 8h1v1H20zM22 8h1v1H22zM24 8h1v1H24zM26 8h1v1H26zM28,8 h7v1H28zM11 9h1v1H11zM17 9h1v1H17zM20 9h1v1H20zM22 9h1v1H22zM25 9h2v1H25zM5 10h2v1H5zM8 10h2v1H8zM11 10h2v1H11zM17 10h1v1H17zM20 10h1v1H20zM22 10h1v1H22zM26 10h1v1H26zM31 10h2v1H31zM3 11h1v1H3zM6 11h1v1H6zM9 11h1v1H9zM12 11h2v1H12zM19 11h2v1H19zM23 11h3v1H23zM27 11h1v1H27zM29 11h3v1H29zM2 12h1v1H2zM4 12h2v1H4zM7 12h6v1H7zM14 12h1v1H14zM16 12h1v1H16zM18 12h1v1H18zM21 12h5v1H21zM29 12h1v1H29zM31,12 h4v1H31zM2 13h1v1H2zM4 13h4v1H4zM9 13h2v1H9zM14 13h2v1H14zM17 13h1v1H17zM20 13h2v1H20zM25 13h3v1H25zM29 13h2v1H29zM32 13h2v1H32zM3 14h1v1H3zM5 14h1v1H5zM7 14h5v1H7zM13 14h2v1H13zM18 14h2v1H18zM24 14h2v1H24zM28 14h1v1H28zM31 14h1v1H31zM33,14 h2v1H33zM2 15h3v1H2zM11 15h1v1H11zM15 15h3v1H15zM20 15h1v1H20zM22 15h4v1H22zM27 15h1v1H27zM32 15h2v1H32zM2 16h2v1H2zM5 16h5v1H5zM13 16h3v1H13zM17 16h2v1H17zM21 16h2v1H21zM27 16h2v1H27zM32 16h1v1H32zM2 17h1v1H2zM5 17h3v1H5zM9 17h1v1H9zM11 17h1v1H11zM13 17h6v1H13zM20 17h1v1H20zM22 17h1v1H22zM25 17h3v1H25zM30 17h3v1H30zM2 18h2v1H2zM5 18h1v1H5zM8 18h5v1H8zM14 18h3v1H14zM18 18h1v1H18zM20 18h1v1H20zM22 18h1v1H22zM25 18h1v1H25zM28 18h3v1H28zM34,18 h1v1H34zM2 19h1v1H2zM4 19h1v1H4zM6 19h2v1H6zM9 19h1v1H9zM12 19h1v1H12zM15 19h1v1H15zM17 19h5v1H17zM24 19h1v1H24zM26 19h1v1H26zM28 19h4v1H28zM33,19 h2v1H33zM3 20h1v1H3zM5 20h1v1H5zM7 20h2v1H7zM10 20h3v1H10zM15 20h1v1H15zM20 20h1v1H20zM23 20h3v1H23zM29 20h1v1H29zM31 20h2v1H31zM34,20 h1v1H34zM3 21h1v1H3zM5 21h3v1H5zM14 21h1v1H14zM16 21h1v1H16zM19 21h1v1H19zM21 21h2v1H21zM24 21h3v1H24zM29 21h4v1H29zM34,21 h1v1H34zM2 22h4v1H2zM8 22h3v1H8zM16 22h1v1H16zM18 22h2v1H18zM24 22h1v1H24zM29 22h1v1H29zM31 22h1v1H31zM33 22h1v1H33zM2 23h2v1H2zM7 23h1v1H7zM9 23h1v1H9zM11 23h1v1H11zM13 23h2v1H13zM16 23h3v1H16zM20 23h6v1H20zM27 23h1v1H27zM29 23h2v1H29zM2 24h1v1H2zM4 24h2v1H4zM7 24h2v1H7zM10 24h1v1H10zM14 24h1v1H14zM16 24h3v1H16zM20 24h2v1H20zM23 24h3v1H23zM28 24h3v1H28zM32,24 h3v1H32zM2 25h1v1H2zM5 25h2v1H5zM9 25h2v1H9zM15 25h1v1H15zM17 25h2v1H17zM20 25h3v1H20zM24 25h3v1H24zM29 25h2v1H29zM32 25h1v1H32zM34,25 h1v1H34zM2 26h3v1H2zM6 26h4v1H6zM11 26h1v1H11zM15 26h2v1H15zM21 26h1v1H21zM25 26h7v1H25zM10 27h1v1H10zM12 27h3v1H12zM16 27h1v1H16zM18 27h3v1H18zM22 27h1v1H22zM26 27h1v1H26zM30 27h1v1H30zM33 27h1v1H33zM2 28h7v1H2zM10 28h3v1H10zM14 28h1v1H14zM16 28h1v1H16zM20 28h7v1H20zM28 28h1v1H28zM30 28h3v1H30zM2 29h1v1H2zM8 29h1v1H8zM13 29h6v1H13zM20 29h2v1H20zM25 29h2v1H25zM30 29h4v1H30zM2 30h1v1H2zM4 30h3v1H4zM8 30h1v1H8zM10 30h3v1H10zM16 30h1v1H16zM18 30h2v1H18zM22 30h2v1H22zM25 30h7v1H25zM33 30h1v1H33zM2 31h1v1H2zM4 31h3v1H4zM8 31h1v1H8zM10 31h2v1H10zM16 31h5v1H16zM22 31h1v1H22zM24 31h1v1H24zM27 31h1v1H27zM29 31h1v1H29zM31 31h2v1H31zM34,31 h1v1H34zM2 32h1v1H2zM4 32h3v1H4zM8 32h1v1H8zM13 32h4v1H13zM18 32h1v1H18zM22 32h1v1H22zM30,32 h5v1H30zM2 33h1v1H2zM8 33h1v1H8zM11 33h1v1H11zM13 33h1v1H13zM18 33h1v1H18zM20 33h3v1H20zM25 33h1v1H25zM28 33h1v1H28zM31,33 h4v1H31zM2 34h7v1H2zM12 34h2v1H12zM16 34h1v1H16zM18 34h1v1H18zM20 34h1v1H20zM25 34h2v1H25zM30 34h2v1H30z" shapeRendering="crispEdges"></path></svg>