<svg width="48" height="58" viewBox="0 0 48 58" fill="none" xmlns="http://www.w3.org/2000/svg">
<path d="M22.4144 6.64731C23.3418 6.11193 24.4849 6.11213 25.4124 6.64731L45.2259 18.0868C46.1534 18.6222 46.7247 19.6125 46.7249 20.6834V41.7067C46.7249 42.2608 46.2064 42.6695 45.674 42.5159C45.0538 42.3371 44.4432 42.1344 43.8406 41.9092C43.5122 41.7865 43.2991 41.4701 43.2991 41.1196V25.4178C43.2991 24.6387 42.3219 24.2448 41.7439 24.7673C37.8754 28.2638 33.1122 30.4129 28.3323 32.281C27.7437 32.5111 27.5931 33.2767 28.0562 33.7067C33.6716 38.9213 39.0802 43.2485 46.303 44.1834C47.2414 44.3049 47.904 45.165 47.7825 46.1034C47.6607 47.0413 46.8017 47.7033 45.8636 47.5819C36.631 46.3869 30.0859 40.3642 23.8936 34.4986C23.6543 34.2719 23.3062 34.2026 22.9985 34.321C17.048 36.6112 11.4177 39.0733 7.03962 43.5782C6.66081 43.968 6.76269 44.6047 7.23341 44.8765L23.4851 54.2594C23.7501 54.4124 24.0767 54.4124 24.3417 54.2594L37.1883 46.842C37.4406 46.6963 37.7493 46.6894 38.0099 46.8197C38.5912 47.1103 39.1813 47.3872 39.7806 47.6484C40.4445 47.9377 40.5182 48.8761 39.8911 49.2382L25.4124 57.5985C24.5429 58.1003 23.4842 58.1314 22.5911 57.6922L22.4144 57.5985L2.60088 46.159C1.73164 45.657 1.17502 44.7555 1.1087 43.7625L1.10186 43.5623V22.8193C1.10186 22.2519 1.64369 21.8413 2.18389 22.0149C2.79713 22.212 3.40039 22.4273 3.99469 22.6594C4.31826 22.7857 4.52764 23.0997 4.52764 23.447V39.1333C4.52764 39.9034 5.48026 40.2968 6.05406 39.7833C10.0735 36.1863 14.7894 33.9114 19.4649 32.0265C20.0508 31.7903 20.196 31.0243 19.729 30.5989C14.3771 25.7228 8.81076 21.4982 1.39288 20.0838C0.463752 19.9064 -0.146503 19.0092 0.0305704 18.0799C0.207899 17.1506 1.10609 16.5414 2.03545 16.7186C11.3241 18.4898 17.9469 24.199 23.9003 29.7956C24.1393 30.0202 24.4854 30.0891 24.792 29.9727C31.1721 27.5492 36.9035 25.215 40.957 20.721C41.3105 20.3291 41.198 19.7175 40.7409 19.4536L24.3417 9.9854C24.0766 9.83239 23.7501 9.83238 23.4851 9.98538L10.3263 17.5819C10.077 17.7258 9.77246 17.7343 9.51372 17.6083C8.9224 17.3204 8.32157 17.0445 7.71079 16.7822C7.04633 16.4967 6.97335 15.5616 7.59965 15.2L22.4144 6.64731Z" fill="#1A83FE"/>
<path d="M22.4144 6.64731C23.3418 6.11193 24.4849 6.11213 25.4124 6.64731L45.2259 18.0868C46.1534 18.6222 46.7247 19.6125 46.7249 20.6834V41.7067C46.7249 42.2608 46.2064 42.6695 45.674 42.5159C45.0538 42.3371 44.4432 42.1344 43.8406 41.9092C43.5122 41.7865 43.2991 41.4701 43.2991 41.1196V25.4178C43.2991 24.6387 42.3219 24.2448 41.7439 24.7673C37.8754 28.2638 33.1122 30.4129 28.3323 32.281C27.7437 32.5111 27.5931 33.2767 28.0562 33.7067C33.6716 38.9213 39.0802 43.2485 46.303 44.1834C47.2414 44.3049 47.904 45.165 47.7825 46.1034C47.6607 47.0413 46.8017 47.7033 45.8636 47.5819C36.631 46.3869 30.0859 40.3642 23.8936 34.4986C23.6543 34.2719 23.3062 34.2026 22.9985 34.321C17.048 36.6112 11.4177 39.0733 7.03962 43.5782C6.66081 43.968 6.76269 44.6047 7.23341 44.8765L23.4851 54.2594C23.7501 54.4124 24.0767 54.4124 24.3417 54.2594L37.1883 46.842C37.4406 46.6963 37.7493 46.6894 38.0099 46.8197C38.5912 47.1103 39.1813 47.3872 39.7806 47.6484C40.4445 47.9377 40.5182 48.8761 39.8911 49.2382L25.4124 57.5985C24.5429 58.1003 23.4842 58.1314 22.5911 57.6922L22.4144 57.5985L2.60088 46.159C1.73164 45.657 1.17502 44.7555 1.1087 43.7625L1.10186 43.5623V22.8193C1.10186 22.2519 1.64369 21.8413 2.18389 22.0149C2.79713 22.212 3.40039 22.4273 3.99469 22.6594C4.31826 22.7857 4.52764 23.0997 4.52764 23.447V39.1333C4.52764 39.9034 5.48026 40.2968 6.05406 39.7833C10.0735 36.1863 14.7894 33.9114 19.4649 32.0265C20.0508 31.7903 20.196 31.0243 19.729 30.5989C14.3771 25.7228 8.81076 21.4982 1.39288 20.0838C0.463752 19.9064 -0.146503 19.0092 0.0305704 18.0799C0.207899 17.1506 1.10609 16.5414 2.03545 16.7186C11.3241 18.4898 17.9469 24.199 23.9003 29.7956C24.1393 30.0202 24.4854 30.0891 24.792 29.9727C31.1721 27.5492 36.9035 25.215 40.957 20.721C41.3105 20.3291 41.198 19.7175 40.7409 19.4536L24.3417 9.9854C24.0766 9.83239 23.7501 9.83238 23.4851 9.98538L10.3263 17.5819C10.077 17.7258 9.77246 17.7343 9.51372 17.6083C8.9224 17.3204 8.32157 17.0445 7.71079 16.7822C7.04633 16.4967 6.97335 15.5616 7.59965 15.2L22.4144 6.64731Z" fill="url(#paint0_linear_5_267)"/>
<path d="M36.6189 0.107422C36.7061 0.205864 36.7842 0.33591 36.8542 0.490234C36.9411 0.681562 37.016 0.90378 37.0867 1.13379C37.1568 1.36233 37.2241 1.60133 37.2947 1.81836C37.3653 2.0356 37.4408 2.23731 37.531 2.39551C38.2251 3.61252 39.5368 4.06451 40.7439 4.43555C39.389 4.93437 38.5935 5.35758 38.0398 6.00293C37.4789 6.65675 37.1701 7.53237 36.7693 8.92383C36.5867 8.72756 36.4537 8.40887 36.3435 8.06055C36.2828 7.86858 36.2294 7.67139 36.1785 7.48535C36.1277 7.30004 36.0784 7.12525 36.0261 6.98145C35.739 6.19174 35.1408 5.6506 34.448 5.22656C33.819 4.84159 33.1045 4.54597 32.4695 4.25195C33.8084 4.13039 34.7011 3.73129 35.3298 3.04883C35.9717 2.35201 36.3301 1.36695 36.6189 0.107422Z" fill="#1A83FE"/>
<path d="M36.6189 0.107422C36.7061 0.205864 36.7842 0.33591 36.8542 0.490234C36.9411 0.681562 37.016 0.90378 37.0867 1.13379C37.1568 1.36233 37.2241 1.60133 37.2947 1.81836C37.3653 2.0356 37.4408 2.23731 37.531 2.39551C38.2251 3.61252 39.5368 4.06451 40.7439 4.43555C39.389 4.93437 38.5935 5.35758 38.0398 6.00293C37.4789 6.65675 37.1701 7.53237 36.7693 8.92383C36.5867 8.72756 36.4537 8.40887 36.3435 8.06055C36.2828 7.86858 36.2294 7.67139 36.1785 7.48535C36.1277 7.30004 36.0784 7.12525 36.0261 6.98145C35.739 6.19174 35.1408 5.6506 34.448 5.22656C33.819 4.84159 33.1045 4.54597 32.4695 4.25195C33.8084 4.13039 34.7011 3.73129 35.3298 3.04883C35.9717 2.35201 36.3301 1.36695 36.6189 0.107422Z" fill="url(#paint1_linear_5_267)"/>
<path d="M36.6189 0.107422C36.7061 0.205864 36.7842 0.33591 36.8542 0.490234C36.9411 0.681562 37.016 0.90378 37.0867 1.13379C37.1568 1.36233 37.2241 1.60133 37.2947 1.81836C37.3653 2.0356 37.4408 2.23731 37.531 2.39551C38.2251 3.61252 39.5368 4.06451 40.7439 4.43555C39.389 4.93437 38.5935 5.35758 38.0398 6.00293C37.4789 6.65675 37.1701 7.53237 36.7693 8.92383C36.5867 8.72756 36.4537 8.40887 36.3435 8.06055C36.2828 7.86858 36.2294 7.67139 36.1785 7.48535C36.1277 7.30004 36.0784 7.12525 36.0261 6.98145C35.739 6.19174 35.1408 5.6506 34.448 5.22656C33.819 4.84159 33.1045 4.54597 32.4695 4.25195C33.8084 4.13039 34.7011 3.73129 35.3298 3.04883C35.9717 2.35201 36.3301 1.36695 36.6189 0.107422Z" stroke="#1A83FE" stroke-width="0.107077"/>
<path d="M36.6189 0.107422C36.7061 0.205864 36.7842 0.33591 36.8542 0.490234C36.9411 0.681562 37.016 0.90378 37.0867 1.13379C37.1568 1.36233 37.2241 1.60133 37.2947 1.81836C37.3653 2.0356 37.4408 2.23731 37.531 2.39551C38.2251 3.61252 39.5368 4.06451 40.7439 4.43555C39.389 4.93437 38.5935 5.35758 38.0398 6.00293C37.4789 6.65675 37.1701 7.53237 36.7693 8.92383C36.5867 8.72756 36.4537 8.40887 36.3435 8.06055C36.2828 7.86858 36.2294 7.67139 36.1785 7.48535C36.1277 7.30004 36.0784 7.12525 36.0261 6.98145C35.739 6.19174 35.1408 5.6506 34.448 5.22656C33.819 4.84159 33.1045 4.54597 32.4695 4.25195C33.8084 4.13039 34.7011 3.73129 35.3298 3.04883C35.9717 2.35201 36.3301 1.36695 36.6189 0.107422Z" stroke="url(#paint2_linear_5_267)" stroke-width="0.107077"/>
<path d="M2.70947 50.7802C2.77122 50.8522 2.83033 50.9497 2.88721 51.0673C2.96528 51.2286 3.0369 51.4212 3.10791 51.6219C3.17853 51.8216 3.24916 52.0301 3.32275 52.2196C3.39629 52.4089 3.47452 52.5841 3.56396 52.7167C3.79319 53.0563 4.11545 53.2595 4.46729 53.3993C4.76624 53.518 5.09129 53.5917 5.40088 53.6639C4.61087 53.9928 4.0852 54.2372 3.71338 54.621C3.32219 55.0249 3.10562 55.5768 2.91162 56.5184L2.83936 56.5223C2.68267 56.0302 2.56776 55.6495 2.45361 55.3466C2.3361 55.0347 2.21771 54.8 2.05127 54.6053C1.73456 54.2351 1.25048 54.0199 0.304199 53.6708C1.13333 53.4034 1.6794 53.1436 2.04443 52.7196C2.41645 52.2874 2.59318 51.6938 2.70947 50.7802Z" fill="#1A83FE"/>
<path d="M2.70947 50.7802C2.77122 50.8522 2.83033 50.9497 2.88721 51.0673C2.96528 51.2286 3.0369 51.4212 3.10791 51.6219C3.17853 51.8216 3.24916 52.0301 3.32275 52.2196C3.39629 52.4089 3.47452 52.5841 3.56396 52.7167C3.79319 53.0563 4.11545 53.2595 4.46729 53.3993C4.76624 53.518 5.09129 53.5917 5.40088 53.6639C4.61087 53.9928 4.0852 54.2372 3.71338 54.621C3.32219 55.0249 3.10562 55.5768 2.91162 56.5184L2.83936 56.5223C2.68267 56.0302 2.56776 55.6495 2.45361 55.3466C2.3361 55.0347 2.21771 54.8 2.05127 54.6053C1.73456 54.2351 1.25048 54.0199 0.304199 53.6708C1.13333 53.4034 1.6794 53.1436 2.04443 52.7196C2.41645 52.2874 2.59318 51.6938 2.70947 50.7802Z" fill="url(#paint3_linear_5_267)"/>
<path d="M2.70947 50.7802C2.77122 50.8522 2.83033 50.9497 2.88721 51.0673C2.96528 51.2286 3.0369 51.4212 3.10791 51.6219C3.17853 51.8216 3.24916 52.0301 3.32275 52.2196C3.39629 52.4089 3.47452 52.5841 3.56396 52.7167C3.79319 53.0563 4.11545 53.2595 4.46729 53.3993C4.76624 53.518 5.09129 53.5917 5.40088 53.6639C4.61087 53.9928 4.0852 54.2372 3.71338 54.621C3.32219 55.0249 3.10562 55.5768 2.91162 56.5184L2.83936 56.5223C2.68267 56.0302 2.56776 55.6495 2.45361 55.3466C2.3361 55.0347 2.21771 54.8 2.05127 54.6053C1.73456 54.2351 1.25048 54.0199 0.304199 53.6708C1.13333 53.4034 1.6794 53.1436 2.04443 52.7196C2.41645 52.2874 2.59318 51.6938 2.70947 50.7802Z" stroke="#1A83FE" stroke-width="0.107077"/>
<path d="M2.70947 50.7802C2.77122 50.8522 2.83033 50.9497 2.88721 51.0673C2.96528 51.2286 3.0369 51.4212 3.10791 51.6219C3.17853 51.8216 3.24916 52.0301 3.32275 52.2196C3.39629 52.4089 3.47452 52.5841 3.56396 52.7167C3.79319 53.0563 4.11545 53.2595 4.46729 53.3993C4.76624 53.518 5.09129 53.5917 5.40088 53.6639C4.61087 53.9928 4.0852 54.2372 3.71338 54.621C3.32219 55.0249 3.10562 55.5768 2.91162 56.5184L2.83936 56.5223C2.68267 56.0302 2.56776 55.6495 2.45361 55.3466C2.3361 55.0347 2.21771 54.8 2.05127 54.6053C1.73456 54.2351 1.25048 54.0199 0.304199 53.6708C1.13333 53.4034 1.6794 53.1436 2.04443 52.7196C2.41645 52.2874 2.59318 51.6938 2.70947 50.7802Z" stroke="url(#paint4_linear_5_267)" stroke-width="0.107077"/>
<path d="M45.2595 7.87952C45.3964 8.20148 45.4673 8.48306 45.5593 8.80334C45.6638 9.16665 45.797 9.57268 46.0935 10.1256L46.1003 10.1373L46.1121 10.1451C46.5239 10.4135 47.0664 10.6831 47.5212 10.9186C46.6652 11.1893 46.217 11.3982 45.9275 11.7506C45.7761 11.9351 45.6703 12.1562 45.5701 12.4381C45.4735 12.7099 45.3804 13.0433 45.2576 13.4596L45.1716 13.4489C45.0375 12.9897 44.7963 12.3956 44.6287 11.9489L44.6238 11.9352L44.6121 11.9264C44.1892 11.5794 43.874 11.3721 43.5378 11.2067C43.2395 11.0598 42.9249 10.947 42.5085 10.7965C43.4677 10.542 44.02 10.296 44.3992 9.86682C44.7785 9.43728 44.9787 8.83059 45.2595 7.87952Z" fill="#1A83FE"/>
<path d="M45.2595 7.87952C45.3964 8.20148 45.4673 8.48306 45.5593 8.80334C45.6638 9.16665 45.797 9.57268 46.0935 10.1256L46.1003 10.1373L46.1121 10.1451C46.5239 10.4135 47.0664 10.6831 47.5212 10.9186C46.6652 11.1893 46.217 11.3982 45.9275 11.7506C45.7761 11.9351 45.6703 12.1562 45.5701 12.4381C45.4735 12.7099 45.3804 13.0433 45.2576 13.4596L45.1716 13.4489C45.0375 12.9897 44.7963 12.3956 44.6287 11.9489L44.6238 11.9352L44.6121 11.9264C44.1892 11.5794 43.874 11.3721 43.5378 11.2067C43.2395 11.0598 42.9249 10.947 42.5085 10.7965C43.4677 10.542 44.02 10.296 44.3992 9.86682C44.7785 9.43728 44.9787 8.83059 45.2595 7.87952Z" fill="url(#paint5_linear_5_267)"/>
<path d="M45.2595 7.87952C45.3964 8.20148 45.4673 8.48306 45.5593 8.80334C45.6638 9.16665 45.797 9.57268 46.0935 10.1256L46.1003 10.1373L46.1121 10.1451C46.5239 10.4135 47.0664 10.6831 47.5212 10.9186C46.6652 11.1893 46.217 11.3982 45.9275 11.7506C45.7761 11.9351 45.6703 12.1562 45.5701 12.4381C45.4735 12.7099 45.3804 13.0433 45.2576 13.4596L45.1716 13.4489C45.0375 12.9897 44.7963 12.3956 44.6287 11.9489L44.6238 11.9352L44.6121 11.9264C44.1892 11.5794 43.874 11.3721 43.5378 11.2067C43.2395 11.0598 42.9249 10.947 42.5085 10.7965C43.4677 10.542 44.02 10.296 44.3992 9.86682C44.7785 9.43728 44.9787 8.83059 45.2595 7.87952Z" stroke="#1A83FE" stroke-width="0.107077"/>
<path d="M45.2595 7.87952C45.3964 8.20148 45.4673 8.48306 45.5593 8.80334C45.6638 9.16665 45.797 9.57268 46.0935 10.1256L46.1003 10.1373L46.1121 10.1451C46.5239 10.4135 47.0664 10.6831 47.5212 10.9186C46.6652 11.1893 46.217 11.3982 45.9275 11.7506C45.7761 11.9351 45.6703 12.1562 45.5701 12.4381C45.4735 12.7099 45.3804 13.0433 45.2576 13.4596L45.1716 13.4489C45.0375 12.9897 44.7963 12.3956 44.6287 11.9489L44.6238 11.9352L44.6121 11.9264C44.1892 11.5794 43.874 11.3721 43.5378 11.2067C43.2395 11.0598 42.9249 10.947 42.5085 10.7965C43.4677 10.542 44.02 10.296 44.3992 9.86682C44.7785 9.43728 44.9787 8.83059 45.2595 7.87952Z" stroke="url(#paint6_linear_5_267)" stroke-width="0.107077"/>
<defs>
<linearGradient id="paint0_linear_5_267" x1="23.9135" y1="6.24582" x2="23.9135" y2="57.9998" gradientUnits="userSpaceOnUse">
<stop stop-color="#6F5AF7"/>
<stop offset="1" stop-color="#A294FF"/>
</linearGradient>
<linearGradient id="paint1_linear_5_267" x1="36.5852" y1="0" x2="36.5852" y2="9.02596" gradientUnits="userSpaceOnUse">
<stop stop-color="#6F5AF7"/>
<stop offset="1" stop-color="#A294FF"/>
</linearGradient>
<linearGradient id="paint2_linear_5_267" x1="36.5852" y1="0" x2="36.5852" y2="9.02596" gradientUnits="userSpaceOnUse">
<stop stop-color="#6F5AF7"/>
<stop offset="1" stop-color="#A294FF"/>
</linearGradient>
<linearGradient id="paint3_linear_5_267" x1="2.85746" y1="50.6669" x2="2.85746" y2="56.579" gradientUnits="userSpaceOnUse">
<stop stop-color="#6F5AF7"/>
<stop offset="1" stop-color="#A294FF"/>
</linearGradient>
<linearGradient id="paint4_linear_5_267" x1="2.85746" y1="50.6669" x2="2.85746" y2="56.579" gradientUnits="userSpaceOnUse">
<stop stop-color="#6F5AF7"/>
<stop offset="1" stop-color="#A294FF"/>
</linearGradient>
<linearGradient id="paint5_linear_5_267" x1="44.9968" y1="7.72327" x2="44.9968" y2="13.5185" gradientUnits="userSpaceOnUse">
<stop stop-color="#6F5AF7"/>
<stop offset="1" stop-color="#A294FF"/>
</linearGradient>
<linearGradient id="paint6_linear_5_267" x1="44.9968" y1="7.72327" x2="44.9968" y2="13.5185" gradientUnits="userSpaceOnUse">
<stop stop-color="#6F5AF7"/>
<stop offset="1" stop-color="#A294FF"/>
</linearGradient>
</defs>
</svg>
