<svg width="395" height="120" viewBox="0 0 395 120" fill="none" xmlns="http://www.w3.org/2000/svg">
<path d="M121.529 65.8463C120.494 65.8463 119.696 65.5659 119.135 65.005C118.574 64.4009 118.293 63.5812 118.293 62.5457V36.658C118.293 35.5793 118.574 34.7595 119.135 34.1986C119.696 33.6377 120.472 33.3573 121.465 33.3573C122.5 33.3573 123.277 33.6377 123.794 34.1986C124.355 34.7595 124.636 35.5793 124.636 36.658V41.9649L123.924 40.5411C124.787 38.2544 126.124 36.4638 127.937 35.1694C129.749 33.875 131.928 33.2278 134.473 33.2278C137.105 33.2278 139.241 33.8535 140.88 35.1047C142.52 36.3559 143.642 38.2759 144.246 40.8647H143.34C144.159 38.4917 145.562 36.6364 147.546 35.2989C149.531 33.9182 151.839 33.2278 154.471 33.2278C156.888 33.2278 158.872 33.7025 160.426 34.6517C161.979 35.5577 163.144 36.96 163.92 38.8584C164.697 40.7137 165.085 43.0652 165.085 45.9128V62.5457C165.085 63.5812 164.783 64.4009 164.179 65.005C163.618 65.5659 162.82 65.8463 161.785 65.8463C160.749 65.8463 159.951 65.5659 159.39 65.005C158.829 64.4009 158.549 63.5812 158.549 62.5457V46.2364C158.549 43.5614 158.074 41.5982 157.125 40.347C156.219 39.0957 154.709 38.4701 152.595 38.4701C150.222 38.4701 148.345 39.2899 146.964 40.9294C145.583 42.569 144.893 44.8342 144.893 47.725V62.5457C144.893 63.5812 144.613 64.4009 144.052 65.005C143.491 65.5659 142.693 65.8463 141.657 65.8463C140.621 65.8463 139.802 65.5659 139.198 65.005C138.637 64.4009 138.356 63.5812 138.356 62.5457V46.2364C138.356 43.5614 137.903 41.5982 136.997 40.347C136.091 39.0957 134.581 38.4701 132.467 38.4701C130.094 38.4701 128.217 39.2899 126.836 40.9294C125.499 42.569 124.83 44.8342 124.83 47.725V62.5457C124.83 64.7461 123.73 65.8463 121.529 65.8463ZM189.045 65.9758C185.593 65.9758 182.616 65.3286 180.114 64.0342C177.655 62.6967 175.735 60.8198 174.354 58.4036C173.016 55.9443 172.348 53.0319 172.348 49.6665C172.348 46.3874 173.016 43.5182 174.354 41.0589C175.691 38.5995 177.525 36.6795 179.855 35.2989C182.185 33.9182 184.838 33.2278 187.815 33.2278C190.016 33.2278 191.979 33.5946 193.705 34.3281C195.431 35.0184 196.898 36.0539 198.106 37.4346C199.357 38.7721 200.285 40.4117 200.889 42.3533C201.536 44.2948 201.86 46.4737 201.86 48.8899C201.86 49.6234 201.644 50.1843 201.212 50.5726C200.781 50.9178 200.134 51.0904 199.271 51.0904H177.525V47.0778H197.459L196.358 47.9838C196.358 45.8265 196.035 43.9928 195.388 42.4827C194.784 40.9726 193.856 39.8292 192.605 39.0526C191.397 38.2328 189.886 37.8229 188.074 37.8229C186.046 37.8229 184.321 38.2975 182.897 39.2467C181.516 40.196 180.459 41.5119 179.726 43.1946C178.992 44.8773 178.625 46.8405 178.625 49.0841V49.4724C178.625 53.2692 179.51 56.1385 181.279 58.08C183.091 59.9785 185.701 60.9277 189.11 60.9277C190.404 60.9277 191.763 60.7551 193.187 60.4099C194.654 60.0648 196.035 59.4823 197.329 58.6625C198.063 58.231 198.71 58.0369 199.271 58.08C199.875 58.1232 200.349 58.3173 200.695 58.6625C201.083 59.0077 201.32 59.4391 201.407 59.9569C201.493 60.4746 201.407 61.014 201.148 61.5749C200.889 62.0926 200.436 62.5672 199.789 62.9987C198.322 63.9911 196.617 64.7461 194.676 65.2639C192.734 65.7385 190.857 65.9758 189.045 65.9758ZM220.053 65.9758C218.154 65.9758 216.191 65.7601 214.163 65.3286C212.179 64.8971 210.345 64.1636 208.662 63.1281C208.101 62.7398 207.713 62.3084 207.497 61.8338C207.281 61.3591 207.195 60.8845 207.238 60.4099C207.325 59.8922 207.519 59.4607 207.821 59.1155C208.166 58.7272 208.576 58.4899 209.05 58.4036C209.568 58.3173 210.108 58.4252 210.668 58.7272C212.351 59.6764 213.969 60.3452 215.522 60.7335C217.076 61.0787 218.607 61.2513 220.117 61.2513C222.404 61.2513 224.13 60.8414 225.295 60.0216C226.46 59.2018 227.042 58.1016 227.042 56.7209C227.042 55.5991 226.654 54.7362 225.877 54.1322C225.101 53.485 223.936 52.9888 222.383 52.6436L216.234 51.414C213.559 50.8531 211.531 49.8607 210.151 48.4369C208.77 47.013 208.08 45.2009 208.08 43.0005C208.08 41.0157 208.619 39.2899 209.698 37.8229C210.776 36.3559 212.286 35.2341 214.228 34.4575C216.17 33.6377 218.413 33.2278 220.959 33.2278C222.857 33.2278 224.648 33.4652 226.33 33.9398C228.013 34.4144 229.566 35.1263 230.99 36.0755C231.551 36.3775 231.918 36.7874 232.091 37.3052C232.263 37.7798 232.285 38.2544 232.155 38.729C232.069 39.2036 231.853 39.6351 231.508 40.0234C231.163 40.3685 230.731 40.5843 230.214 40.6706C229.739 40.7137 229.2 40.5843 228.596 40.2822C227.301 39.4625 226.007 38.88 224.713 38.5348C223.461 38.1897 222.21 38.0171 220.959 38.0171C218.672 38.0171 216.946 38.4485 215.781 39.3115C214.659 40.1312 214.099 41.253 214.099 42.6769C214.099 43.7555 214.444 44.64 215.134 45.3303C215.824 46.0207 216.903 46.5169 218.37 46.8189L224.518 48.0486C227.323 48.6095 229.437 49.5587 230.861 50.8962C232.328 52.2337 233.061 54.0459 233.061 56.3326C233.061 59.3097 231.875 61.6612 229.502 63.387C227.129 65.1129 223.979 65.9758 220.053 65.9758ZM243.57 65.8463C242.535 65.8463 241.736 65.5659 241.175 65.005C240.615 64.4009 240.334 63.5812 240.334 62.5457V22.6139C240.334 21.5352 240.615 20.7155 241.175 20.1546C241.736 19.5937 242.535 19.3132 243.57 19.3132C244.606 19.3132 245.404 19.5937 245.965 20.1546C246.569 20.7155 246.871 21.5352 246.871 22.6139V40.5411H245.965C246.914 38.1249 248.402 36.3128 250.43 35.1047C252.458 33.8535 254.788 33.2278 257.42 33.2278C259.922 33.2278 261.993 33.7025 263.633 34.6517C265.316 35.5577 266.567 36.96 267.387 38.8584C268.207 40.7137 268.616 43.0652 268.616 45.9128V62.5457C268.616 63.5812 268.336 64.4009 267.775 65.005C267.214 65.5659 266.416 65.8463 265.38 65.8463C264.302 65.8463 263.482 65.5659 262.921 65.005C262.36 64.4009 262.08 63.5812 262.08 62.5457V46.3011C262.08 43.5829 261.54 41.5982 260.462 40.347C259.426 39.0957 257.787 38.4701 255.543 38.4701C252.911 38.4701 250.797 39.2899 249.201 40.9294C247.647 42.569 246.871 44.7694 246.871 47.5308V62.5457C246.871 64.7461 245.771 65.8463 243.57 65.8463ZM276.07 69.4706C275.423 69.4706 274.884 69.2765 274.452 68.8881C274.064 68.4998 273.87 68.0252 273.87 67.4643C273.87 66.9034 274.064 66.4072 274.452 65.9758C274.884 65.5875 275.423 65.3933 276.07 65.3933H302.411C303.015 65.3933 303.511 65.5875 303.9 65.9758C304.331 66.4072 304.547 66.9034 304.547 67.4643C304.547 68.0252 304.331 68.4998 303.9 68.8881C303.511 69.2765 303.015 69.4706 302.411 69.4706H276.07ZM319.827 65.9758C317.626 65.9758 315.641 65.5443 313.872 64.6814C312.147 63.8185 310.787 62.6535 309.795 61.1866C308.803 59.7196 308.307 58.0585 308.307 56.2032C308.307 53.8733 308.889 52.0396 310.054 50.702C311.262 49.3214 313.225 48.3506 315.943 47.7897C318.705 47.1856 322.415 46.8836 327.075 46.8836H330.117V50.8962H327.14C324.033 50.8962 321.574 51.0472 319.762 51.3492C317.95 51.6513 316.655 52.169 315.879 52.9025C315.145 53.5928 314.778 54.5636 314.778 55.8149C314.778 57.4544 315.339 58.7919 316.461 59.8275C317.583 60.8198 319.136 61.316 321.121 61.316C322.717 61.316 324.12 60.9493 325.328 60.2158C326.536 59.4391 327.485 58.4036 328.175 57.1092C328.909 55.8149 329.276 54.3263 329.276 52.6436V45.2009C329.276 42.7416 328.758 40.9726 327.722 39.8939C326.687 38.8153 324.983 38.2759 322.609 38.2759C321.229 38.2759 319.783 38.4485 318.273 38.7937C316.806 39.1389 315.275 39.7213 313.678 40.5411C312.945 40.8863 312.319 40.9942 311.801 40.8647C311.284 40.7353 310.874 40.4548 310.572 40.0234C310.27 39.5488 310.097 39.0526 310.054 38.5348C310.054 37.9739 310.183 37.4346 310.442 36.9168C310.744 36.3991 311.24 36.0108 311.931 35.7519C313.829 34.8458 315.706 34.1986 317.561 33.8103C319.417 33.422 321.164 33.2278 322.804 33.2278C325.694 33.2278 328.067 33.6809 329.923 34.587C331.821 35.493 333.223 36.8737 334.129 38.729C335.036 40.5843 335.489 42.9789 335.489 45.9128V62.5457C335.489 63.5812 335.23 64.4009 334.712 65.005C334.194 65.5659 333.439 65.8463 332.447 65.8463C331.498 65.8463 330.743 65.5659 330.182 65.005C329.621 64.4009 329.34 63.5812 329.34 62.5457V58.3389H329.923C329.578 59.9353 328.93 61.316 327.981 62.4809C327.075 63.6027 325.932 64.4657 324.551 65.0697C323.17 65.6738 321.596 65.9758 319.827 65.9758ZM347.728 77.4958C346.692 77.4958 345.894 77.2154 345.333 76.6545C344.772 76.0936 344.492 75.2738 344.492 74.1951V36.658C344.492 35.5793 344.772 34.7595 345.333 34.1986C345.894 33.6377 346.671 33.3573 347.663 33.3573C348.698 33.3573 349.497 33.6377 350.057 34.1986C350.618 34.7595 350.899 35.5793 350.899 36.658V42.2885L350.187 40.9294C350.877 38.5995 352.236 36.7443 354.264 35.3636C356.292 33.9398 358.687 33.2278 361.448 33.2278C364.253 33.2278 366.69 33.8966 368.761 35.2341C370.876 36.5717 372.494 38.4485 373.615 40.8647C374.78 43.2809 375.363 46.1933 375.363 49.6018C375.363 52.9241 374.78 55.8364 373.615 58.3389C372.494 60.7982 370.897 62.6967 368.826 64.0342C366.755 65.3286 364.296 65.9758 361.448 65.9758C358.73 65.9758 356.357 65.2854 354.329 63.9048C352.301 62.5241 350.942 60.6904 350.252 58.4036H351.028V74.1951C351.028 75.2738 350.726 76.0936 350.122 76.6545C349.561 77.2154 348.763 77.4958 347.728 77.4958ZM359.83 60.9277C361.642 60.9277 363.217 60.4962 364.555 59.6333C365.892 58.7704 366.928 57.4976 367.661 55.8149C368.395 54.1322 368.761 52.0611 368.761 49.6018C368.761 45.8912 367.942 43.0867 366.302 41.1883C364.706 39.2899 362.548 38.3407 359.83 38.3407C358.061 38.3407 356.486 38.7721 355.106 39.6351C353.768 40.4548 352.733 41.7061 351.999 43.3888C351.266 45.0715 350.899 47.1425 350.899 49.6018C350.899 53.2692 351.719 56.0737 353.358 58.0153C354.998 59.9569 357.155 60.9277 359.83 60.9277ZM385.965 65.7816C384.93 65.7816 384.131 65.4796 383.57 64.8756C383.01 64.2284 382.729 63.3439 382.729 62.2221V36.9816C382.729 35.8598 383.01 34.9968 383.57 34.3928C384.131 33.7887 384.93 33.4867 385.965 33.4867C387.001 33.4867 387.799 33.7887 388.36 34.3928C388.964 34.9968 389.266 35.8598 389.266 36.9816V62.2221C389.266 63.3439 388.985 64.2284 388.424 64.8756C387.863 65.4796 387.044 65.7816 385.965 65.7816ZM385.965 26.7559C384.671 26.7559 383.657 26.4323 382.923 25.7851C382.233 25.1379 381.888 24.2319 381.888 23.0669C381.888 21.8588 382.233 20.9528 382.923 20.3487C383.657 19.7015 384.671 19.3779 385.965 19.3779C387.259 19.3779 388.252 19.7015 388.942 20.3487C389.676 20.9528 390.042 21.8588 390.042 23.0669C390.042 24.2319 389.676 25.1379 388.942 25.7851C388.252 26.4323 387.259 26.7559 385.965 26.7559Z" fill="#090909"/>
<path d="M46.3729 13.754C48.2921 12.6459 50.6568 12.646 52.576 13.754L93.5692 37.421C95.4883 38.529 96.6706 40.577 96.6708 42.793V86.293C96.6708 87.4395 95.5981 88.285 94.4966 87.9672C93.2131 87.5969 91.9493 87.1773 90.7021 86.7112C90.0228 86.4573 89.5819 85.8026 89.5819 85.0774V52.5901C89.5819 50.9783 87.5601 50.1634 86.3644 51.2443C78.362 58.4782 68.5096 62.9277 58.6218 66.793C57.404 67.2691 57.0925 68.853 58.0506 69.7427C69.6667 80.5296 80.8559 89.4802 95.7977 91.4141C97.7389 91.6655 99.1093 93.4426 98.8583 95.3839C98.6069 97.325 96.8297 98.6954 94.8885 98.4444C75.7869 95.9723 62.2433 83.5139 49.4316 71.3786C48.9364 70.9096 48.2163 70.7662 47.5798 71.0111C35.2682 75.7493 23.6184 80.8405 14.5606 90.1612C13.7769 90.9676 13.9877 92.2849 14.9616 92.8472L48.5883 112.261C49.1367 112.578 49.8123 112.578 50.3606 112.261L76.9368 96.9172C77.4588 96.6158 78.0975 96.6017 78.6367 96.8711C79.84 97.4725 81.0615 98.0449 82.3023 98.585C83.6761 99.183 83.8287 101.124 82.5312 101.873L52.576 119.169L52.2108 119.363C50.486 120.211 48.4628 120.211 46.7381 119.363L46.3729 119.169L5.37974 95.501C3.58061 94.4622 2.4288 92.597 2.29185 90.5421L2.27818 90.129V47.2111C2.27818 46.0371 3.3992 45.1876 4.51696 45.5464C5.78604 45.9538 7.03448 46.3987 8.26437 46.8787C8.93386 47.14 9.36704 47.7896 9.36704 48.5082V80.9595C9.36704 82.5526 11.3378 83.3666 12.525 82.3044C20.8405 74.8644 30.597 70.159 40.2693 66.2599C41.4814 65.7713 41.7819 64.1865 40.8158 63.3062C29.7433 53.2182 18.2276 44.4791 2.88072 41.5528C0.957918 41.1861 -0.303107 39.3301 0.0633325 37.4073C0.43001 35.4843 2.28588 34.2223 4.20884 34.5889C23.429 38.2538 37.137 50.0633 49.4557 61.6434C49.95 62.1082 50.6661 62.2507 51.3004 62.0097C64.4972 56.9968 76.3515 52.1663 84.7362 42.8701C85.4675 42.0593 85.2348 40.7939 84.2891 40.2479L50.3606 20.6601C49.8122 20.3435 49.1367 20.3435 48.5883 20.6601L21.3649 36.3767C20.8492 36.6745 20.2191 36.6922 19.6837 36.4315C18.4602 35.8356 17.2172 35.2648 15.9535 34.7218C14.5788 34.1312 14.4279 32.1964 15.7236 31.4484L46.3729 13.754Z" fill="#1A83FE"/>
<path d="M46.3729 13.754C48.2921 12.6459 50.6568 12.646 52.576 13.754L93.5692 37.421C95.4883 38.529 96.6706 40.577 96.6708 42.793V86.293C96.6708 87.4395 95.5981 88.285 94.4966 87.9672C93.2131 87.5969 91.9493 87.1773 90.7021 86.7112C90.0228 86.4573 89.5819 85.8026 89.5819 85.0774V52.5901C89.5819 50.9783 87.5601 50.1634 86.3644 51.2443C78.362 58.4782 68.5096 62.9277 58.6218 66.793C57.404 67.2691 57.0925 68.853 58.0506 69.7427C69.6667 80.5296 80.8559 89.4802 95.7977 91.4141C97.7389 91.6655 99.1093 93.4426 98.8583 95.3839C98.6069 97.325 96.8297 98.6954 94.8885 98.4444C75.7869 95.9723 62.2433 83.5139 49.4316 71.3786C48.9364 70.9096 48.2163 70.7662 47.5798 71.0111C35.2682 75.7493 23.6184 80.8405 14.5606 90.1612C13.7769 90.9676 13.9877 92.2849 14.9616 92.8472L48.5883 112.261C49.1367 112.578 49.8123 112.578 50.3606 112.261L76.9368 96.9172C77.4588 96.6158 78.0975 96.6017 78.6367 96.8711C79.84 97.4725 81.0615 98.0449 82.3023 98.585C83.6761 99.183 83.8287 101.124 82.5312 101.873L52.576 119.169L52.2108 119.363C50.486 120.211 48.4628 120.211 46.7381 119.363L46.3729 119.169L5.37974 95.501C3.58061 94.4622 2.4288 92.597 2.29185 90.5421L2.27818 90.129V47.2111C2.27818 46.0371 3.3992 45.1876 4.51696 45.5464C5.78604 45.9538 7.03448 46.3987 8.26437 46.8787C8.93386 47.14 9.36704 47.7896 9.36704 48.5082V80.9595C9.36704 82.5526 11.3378 83.3666 12.525 82.3044C20.8405 74.8644 30.597 70.159 40.2693 66.2599C41.4814 65.7713 41.7819 64.1865 40.8158 63.3062C29.7433 53.2182 18.2276 44.4791 2.88072 41.5528C0.957918 41.1861 -0.303107 39.3301 0.0633325 37.4073C0.43001 35.4843 2.28588 34.2223 4.20884 34.5889C23.429 38.2538 37.137 50.0633 49.4557 61.6434C49.95 62.1082 50.6661 62.2507 51.3004 62.0097C64.4972 56.9968 76.3515 52.1663 84.7362 42.8701C85.4675 42.0593 85.2348 40.7939 84.2891 40.2479L50.3606 20.6601C49.8122 20.3435 49.1367 20.3435 48.5883 20.6601L21.3649 36.3767C20.8492 36.6745 20.2191 36.6922 19.6837 36.4315C18.4602 35.8356 17.2172 35.2648 15.9535 34.7218C14.5788 34.1312 14.4279 32.1964 15.7236 31.4484L46.3729 13.754Z" fill="url(#paint0_linear_5_147)"/>
<path d="M75.7632 0.219727C75.9437 0.423522 76.1035 0.695011 76.2485 1.01465C76.4282 1.41062 76.5829 1.87065 76.729 2.34668C76.8741 2.81934 77.0128 3.31286 77.1587 3.76172C77.305 4.21166 77.4621 4.62955 77.6489 4.95703C79.0851 7.47516 81.7988 8.40906 84.2964 9.17676C81.4927 10.209 79.8453 11.0836 78.6997 12.4189C77.5389 13.772 76.9024 15.5855 76.0728 18.4658C75.6942 18.06 75.4192 17.3993 75.1909 16.6777C75.0653 16.2804 74.9556 15.8713 74.8501 15.4863C74.7451 15.1032 74.6438 14.7417 74.5356 14.4443C73.9416 12.8103 72.7025 11.6908 71.269 10.8135C69.9671 10.0166 68.4877 9.40646 67.1733 8.79785C69.9451 8.54664 71.793 7.72104 73.0942 6.30859C74.4229 4.86636 75.1656 2.82716 75.7632 0.219727Z" fill="#1A83FE"/>
<path d="M75.7632 0.219727C75.9437 0.423522 76.1035 0.695011 76.2485 1.01465C76.4282 1.41062 76.5829 1.87065 76.729 2.34668C76.8741 2.81934 77.0128 3.31286 77.1587 3.76172C77.305 4.21166 77.4621 4.62955 77.6489 4.95703C79.0851 7.47516 81.7988 8.40906 84.2964 9.17676C81.4927 10.209 79.8453 11.0836 78.6997 12.4189C77.5389 13.772 76.9024 15.5855 76.0728 18.4658C75.6942 18.06 75.4192 17.3993 75.1909 16.6777C75.0653 16.2804 74.9556 15.8713 74.8501 15.4863C74.7451 15.1032 74.6438 14.7417 74.5356 14.4443C73.9416 12.8103 72.7025 11.6908 71.269 10.8135C69.9671 10.0166 68.4877 9.40646 67.1733 8.79785C69.9451 8.54664 71.793 7.72104 73.0942 6.30859C74.4229 4.86636 75.1656 2.82716 75.7632 0.219727Z" fill="url(#paint1_linear_5_147)"/>
<path d="M75.7632 0.219727C75.9437 0.423522 76.1035 0.695011 76.2485 1.01465C76.4282 1.41062 76.5829 1.87065 76.729 2.34668C76.8741 2.81934 77.0128 3.31286 77.1587 3.76172C77.305 4.21166 77.4621 4.62955 77.6489 4.95703C79.0851 7.47516 81.7988 8.40906 84.2964 9.17676C81.4927 10.209 79.8453 11.0836 78.6997 12.4189C77.5389 13.772 76.9024 15.5855 76.0728 18.4658C75.6942 18.06 75.4192 17.3993 75.1909 16.6777C75.0653 16.2804 74.9556 15.8713 74.8501 15.4863C74.7451 15.1032 74.6438 14.7417 74.5356 14.4443C73.9416 12.8103 72.7025 11.6908 71.269 10.8135C69.9671 10.0166 68.4877 9.40646 67.1733 8.79785C69.9451 8.54664 71.793 7.72104 73.0942 6.30859C74.4229 4.86636 75.1656 2.82716 75.7632 0.219727Z" stroke="#1A83FE" stroke-width="0.221537"/>
<path d="M75.7632 0.219727C75.9437 0.423522 76.1035 0.695011 76.2485 1.01465C76.4282 1.41062 76.5829 1.87065 76.729 2.34668C76.8741 2.81934 77.0128 3.31286 77.1587 3.76172C77.305 4.21166 77.4621 4.62955 77.6489 4.95703C79.0851 7.47516 81.7988 8.40906 84.2964 9.17676C81.4927 10.209 79.8453 11.0836 78.6997 12.4189C77.5389 13.772 76.9024 15.5855 76.0728 18.4658C75.6942 18.06 75.4192 17.3993 75.1909 16.6777C75.0653 16.2804 74.9556 15.8713 74.8501 15.4863C74.7451 15.1032 74.6438 14.7417 74.5356 14.4443C73.9416 12.8103 72.7025 11.6908 71.269 10.8135C69.9671 10.0166 68.4877 9.40646 67.1733 8.79785C69.9451 8.54664 71.793 7.72104 73.0942 6.30859C74.4229 4.86636 75.1656 2.82716 75.7632 0.219727Z" stroke="url(#paint2_linear_5_147)" stroke-width="0.221537"/>
<path d="M5.60376 105.061C5.73155 105.21 5.85422 105.412 5.97192 105.655C6.13348 105.989 6.28202 106.387 6.42896 106.803C6.57505 107.216 6.72007 107.647 6.87231 108.039C7.0245 108.431 7.18719 108.793 7.37231 109.067C7.84672 109.77 8.51319 110.191 9.24146 110.48C9.85896 110.726 10.5296 110.878 11.1692 111.027C9.53608 111.707 8.45078 112.214 7.68188 113.008C6.87222 113.843 6.42318 114.985 6.02173 116.933L5.87329 116.942C5.549 115.924 5.31068 115.136 5.07446 114.509C4.83131 113.863 4.58592 113.378 4.24146 112.975C3.58654 112.21 2.58685 111.763 0.631104 111.042C2.34489 110.489 3.47303 109.95 4.22778 109.073C4.99738 108.179 5.36317 106.952 5.60376 105.061Z" fill="#1A83FE"/>
<path d="M5.60376 105.061C5.73155 105.21 5.85422 105.412 5.97192 105.655C6.13348 105.989 6.28202 106.387 6.42896 106.803C6.57505 107.216 6.72007 107.647 6.87231 108.039C7.0245 108.431 7.18719 108.793 7.37231 109.067C7.84672 109.77 8.51319 110.191 9.24146 110.48C9.85896 110.726 10.5296 110.878 11.1692 111.027C9.53608 111.707 8.45078 112.214 7.68188 113.008C6.87222 113.843 6.42318 114.985 6.02173 116.933L5.87329 116.942C5.549 115.924 5.31068 115.136 5.07446 114.509C4.83131 113.863 4.58592 113.378 4.24146 112.975C3.58654 112.21 2.58685 111.763 0.631104 111.042C2.34489 110.489 3.47303 109.95 4.22778 109.073C4.99738 108.179 5.36317 106.952 5.60376 105.061Z" fill="url(#paint3_linear_5_147)"/>
<path d="M5.60376 105.061C5.73155 105.21 5.85422 105.412 5.97192 105.655C6.13348 105.989 6.28202 106.387 6.42896 106.803C6.57505 107.216 6.72007 107.647 6.87231 108.039C7.0245 108.431 7.18719 108.793 7.37231 109.067C7.84672 109.77 8.51319 110.191 9.24146 110.48C9.85896 110.726 10.5296 110.878 11.1692 111.027C9.53608 111.707 8.45078 112.214 7.68188 113.008C6.87222 113.843 6.42318 114.985 6.02173 116.933L5.87329 116.942C5.549 115.924 5.31068 115.136 5.07446 114.509C4.83131 113.863 4.58592 113.378 4.24146 112.975C3.58654 112.21 2.58685 111.763 0.631104 111.042C2.34489 110.489 3.47303 109.95 4.22778 109.073C4.99738 108.179 5.36317 106.952 5.60376 105.061Z" stroke="#1A83FE" stroke-width="0.221537"/>
<path d="M5.60376 105.061C5.73155 105.21 5.85422 105.412 5.97192 105.655C6.13348 105.989 6.28202 106.387 6.42896 106.803C6.57505 107.216 6.72007 107.647 6.87231 108.039C7.0245 108.431 7.18719 108.793 7.37231 109.067C7.84672 109.77 8.51319 110.191 9.24146 110.48C9.85896 110.726 10.5296 110.878 11.1692 111.027C9.53608 111.707 8.45078 112.214 7.68188 113.008C6.87222 113.843 6.42318 114.985 6.02173 116.933L5.87329 116.942C5.549 115.924 5.31068 115.136 5.07446 114.509C4.83131 113.863 4.58592 113.378 4.24146 112.975C3.58654 112.21 2.58685 111.763 0.631104 111.042C2.34489 110.489 3.47303 109.95 4.22778 109.073C4.99738 108.179 5.36317 106.952 5.60376 105.061Z" stroke="url(#paint4_linear_5_147)" stroke-width="0.221537"/>
<path d="M93.6409 16.2964C93.9252 16.9641 94.0663 17.5495 94.2571 18.2134C94.4732 18.9652 94.7499 19.8054 95.3635 20.9497L95.3772 20.9741L95.4006 20.9897C96.2529 21.5452 97.3763 22.102 98.3176 22.5894C96.5455 23.1498 95.6178 23.5823 95.0188 24.312C94.7056 24.6937 94.4869 25.1506 94.2795 25.7339C94.0798 26.296 93.8871 26.9853 93.6331 27.8462L93.4573 27.8247C93.1798 26.8749 92.6792 25.6464 92.3323 24.7222L92.3215 24.6938L92.2991 24.6753L91.9807 24.4194C91.2597 23.8515 90.6833 23.4857 90.0745 23.186C89.4578 22.8825 88.8086 22.6483 87.9485 22.3374C89.9315 21.811 91.0726 21.3012 91.8567 20.4136C92.6425 19.5239 93.0588 18.2679 93.6409 16.2964Z" fill="#1A83FE"/>
<path d="M93.6409 16.2964C93.9252 16.9641 94.0663 17.5495 94.2571 18.2134C94.4732 18.9652 94.7499 19.8054 95.3635 20.9497L95.3772 20.9741L95.4006 20.9897C96.2529 21.5452 97.3763 22.102 98.3176 22.5894C96.5455 23.1498 95.6178 23.5823 95.0188 24.312C94.7056 24.6937 94.4869 25.1506 94.2795 25.7339C94.0798 26.296 93.8871 26.9853 93.6331 27.8462L93.4573 27.8247C93.1798 26.8749 92.6792 25.6464 92.3323 24.7222L92.3215 24.6938L92.2991 24.6753L91.9807 24.4194C91.2597 23.8515 90.6833 23.4857 90.0745 23.186C89.4578 22.8825 88.8086 22.6483 87.9485 22.3374C89.9315 21.811 91.0726 21.3012 91.8567 20.4136C92.6425 19.5239 93.0588 18.2679 93.6409 16.2964Z" fill="url(#paint5_linear_5_147)"/>
<path d="M93.6409 16.2964C93.9252 16.9641 94.0663 17.5495 94.2571 18.2134C94.4732 18.9652 94.7499 19.8054 95.3635 20.9497L95.3772 20.9741L95.4006 20.9897C96.2529 21.5452 97.3763 22.102 98.3176 22.5894C96.5455 23.1498 95.6178 23.5823 95.0188 24.312C94.7056 24.6937 94.4869 25.1506 94.2795 25.7339C94.0798 26.296 93.8871 26.9853 93.6331 27.8462L93.4573 27.8247C93.1798 26.8749 92.6792 25.6464 92.3323 24.7222L92.3215 24.6938L92.2991 24.6753L91.9807 24.4194C91.2597 23.8515 90.6833 23.4857 90.0745 23.186C89.4578 22.8825 88.8086 22.6483 87.9485 22.3374C89.9315 21.811 91.0726 21.3012 91.8567 20.4136C92.6425 19.5239 93.0588 18.2679 93.6409 16.2964Z" stroke="#1A83FE" stroke-width="0.221537"/>
<path d="M93.6409 16.2964C93.9252 16.9641 94.0663 17.5495 94.2571 18.2134C94.4732 18.9652 94.7499 19.8054 95.3635 20.9497L95.3772 20.9741L95.4006 20.9897C96.2529 21.5452 97.3763 22.102 98.3176 22.5894C96.5455 23.1498 95.6178 23.5823 95.0188 24.312C94.7056 24.6937 94.4869 25.1506 94.2795 25.7339C94.0798 26.296 93.8871 26.9853 93.6331 27.8462L93.4573 27.8247C93.1798 26.8749 92.6792 25.6464 92.3323 24.7222L92.3215 24.6938L92.2991 24.6753L91.9807 24.4194C91.2597 23.8515 90.6833 23.4857 90.0745 23.186C89.4578 22.8825 88.8086 22.6483 87.9485 22.3374C89.9315 21.811 91.0726 21.3012 91.8567 20.4136C92.6425 19.5239 93.0588 18.2679 93.6409 16.2964Z" stroke="url(#paint6_linear_5_147)" stroke-width="0.221537"/>
<path d="M122.535 96.6498C121.847 96.6498 121.245 96.4921 120.729 96.1768C120.223 95.8519 119.826 95.422 119.54 94.8869C119.262 94.3518 119.119 93.7594 119.11 93.1096H119.382V96.4061H118.78V85.9433H119.54V91.3037L119.181 92.2067C119.2 91.4901 119.348 90.869 119.626 90.3434C119.912 89.8084 120.309 89.3927 120.815 89.0965C121.322 88.8003 121.909 88.6522 122.578 88.6522C123.142 88.6522 123.648 88.7621 124.097 88.9818C124.546 89.1921 124.924 89.4835 125.23 89.8561C125.545 90.2192 125.784 90.6349 125.946 91.1031C126.109 91.5617 126.19 92.049 126.19 92.565V92.7083C126.19 93.2052 126.109 93.6877 125.946 94.1559C125.793 94.6146 125.559 95.035 125.244 95.4172C124.929 95.7898 124.542 96.0908 124.083 96.3201C123.634 96.5399 123.118 96.6498 122.535 96.6498ZM122.463 95.9618C123.094 95.9618 123.629 95.8089 124.069 95.5032C124.518 95.1879 124.857 94.777 125.086 94.2706C125.316 93.7642 125.43 93.2195 125.43 92.6367C125.43 92.0251 125.311 91.4709 125.072 90.9741C124.833 90.4677 124.494 90.0711 124.054 89.7845C123.615 89.4883 123.085 89.3402 122.463 89.3402C121.89 89.3402 121.379 89.4692 120.93 89.7271C120.49 89.9756 120.142 90.3243 119.884 90.7734C119.626 91.213 119.497 91.7194 119.497 92.2927V93.0236C119.497 93.5683 119.621 94.0651 119.869 94.5142C120.127 94.9538 120.476 95.3073 120.916 95.5748C121.365 95.8328 121.881 95.9618 122.463 95.9618ZM127.536 99.33V98.6277H128.396C128.73 98.6277 129.022 98.5847 129.27 98.4987C129.519 98.4222 129.734 98.2789 129.915 98.0687C130.106 97.8585 130.264 97.5575 130.388 97.1658L133.068 88.8815H133.828L131.033 97.4094C130.88 97.8776 130.675 98.2503 130.417 98.5274C130.168 98.814 129.867 99.0194 129.514 99.1437C129.17 99.2679 128.778 99.33 128.339 99.33H127.536ZM130.145 96.2198V95.5462H131.205V96.2198H130.145ZM130.001 96.2198L127.264 88.8815H128.038L130.747 96.2198H130.001Z" fill="url(#paint7_linear_5_147)"/>
<path d="M156.907 99.5511C156.874 99.4124 156.929 99.4089 157.002 99.336C157.118 99.2205 158.125 98.4045 158.2 98.3938C159.815 98.9271 163.368 99.9271 163.572 97.2837C163.764 94.7985 160.53 90.7161 158.686 89.1953C158.126 88.734 158.003 88.5927 157.264 88.8434C155.697 89.3749 152.425 92.0351 155.121 93.3382C155.263 93.5462 154.578 93.9737 154.391 94.0572C152.982 94.6821 152.446 92.5587 152.562 91.517C152.797 89.3971 156.916 86.2977 158.999 87.4603C160.576 88.3412 163.381 91.9969 164.185 93.651C167.086 99.6293 162.941 101.907 157.529 99.7733C157.323 99.6924 157.184 99.4871 156.907 99.5511Z" fill="url(#paint8_linear_5_147)"/>
<path d="M154.329 84.0869L153.026 85.2193C152.289 85.0007 151.578 84.7251 150.808 84.6309C149.639 84.4869 147.922 84.5891 147.752 86.0859C147.453 88.7178 150.402 92.4251 152.284 94.0872C152.827 94.5672 153.105 94.9662 153.891 94.8018C154.802 94.6107 157.031 92.881 157.166 91.9451C157.284 91.1265 156.979 90.4688 156.165 90.2172C156.052 90.2057 156.097 90.1061 156.151 90.0403C156.213 89.9666 156.9 89.4884 156.993 89.4599C158.327 89.0591 158.869 90.9292 158.764 91.9433C158.533 94.1832 154.212 97.5003 152.115 96.0311C151.486 95.5902 150.277 94.3485 149.74 93.7441C147.933 91.7096 145.292 87.7756 146.466 84.9767C147.735 81.9493 152.021 83.0666 154.33 84.0878L154.329 84.0869Z" fill="url(#paint9_linear_5_147)"/>
<path d="M147.751 92.8856C147.779 92.9247 147.914 92.9753 147.975 93.058C148.278 93.4695 148.626 93.8437 148.91 94.2686C148.71 95.1361 148.291 95.9547 148.207 96.8515C147.75 101.736 153.052 99.0736 155.157 97.5795C157.169 96.1529 158.829 94.2019 160.329 92.2643C161.61 93.5833 160.557 94.5992 159.619 95.6418C157.399 98.111 152.713 101.912 149.188 101.093C146.487 100.466 146.376 97.719 146.863 95.4623C146.912 95.2348 147.058 94.7459 147.13 94.4846C147.202 94.2233 147.31 93.8633 147.397 93.5958C147.462 93.3975 147.617 93.0518 147.752 92.8847L147.751 92.8856Z" fill="url(#paint10_linear_5_147)"/>
<path d="M164.195 88.1747C164.142 88.3755 163.993 88.8786 163.928 89.0635C163.896 89.1533 163.723 89.5408 163.661 89.6857C163.581 89.8732 163.353 90.2652 163.217 90.3967C162.994 90.1052 162.271 89.4306 162.239 89.0991C162.637 87.7862 163.59 85.1384 162.233 84.1358C160.675 82.9848 157.54 84.7473 156.167 85.7019C154.078 87.1543 152.273 89.1204 150.818 91.1949C149.373 89.8608 150.723 88.6164 151.706 87.5507C153.61 85.486 156.942 82.8657 159.746 82.3475C163.866 81.5867 165.122 84.6229 164.195 88.1738V88.1747Z" fill="url(#paint11_linear_5_147)"/>
<path d="M146.862 95.4634C145.511 93.2911 144.054 90.8175 143.373 88.3315C142.846 86.408 142.552 82.7523 145.351 82.6652L144.419 83.7309C143.736 85.4161 144.085 87.2915 144.597 88.9741C145.188 90.9171 146.204 92.6938 147.129 94.4857C147.057 94.747 146.911 95.2359 146.862 95.4634Z" fill="url(#paint12_linear_5_147)" fill-opacity="0.2"/>
<path d="M147.396 93.5965C147.207 93.6374 147.202 93.4952 147.129 93.3788C145.819 91.2589 143.387 86.0628 144.68 83.7261C145.266 82.6648 146.879 82.2373 147.928 82.7981C144.122 83.5661 145.52 88.0609 146.58 90.5461C146.87 91.226 147.34 92.298 147.751 92.8864C147.616 93.0535 147.46 93.3992 147.395 93.5974L147.396 93.5965Z" fill="url(#paint13_linear_5_147)" fill-opacity="0.5"/>
<path d="M164.195 88.1747C166.271 90.9772 169.095 94.4641 168.727 98.1731C168.625 99.2069 167.96 100.132 166.862 100.173C168.36 98.7713 167.734 96.1813 167.082 94.4872C166.327 92.5255 165.073 90.803 163.928 89.0635C163.993 88.8786 164.143 88.3756 164.195 88.1747Z" fill="url(#paint14_linear_5_147)" fill-opacity="0.2"/>
<path d="M163.662 89.6854C164.916 91.3404 166.191 93.2194 166.928 95.174C167.467 96.6032 168.064 99.0546 166.536 100.07C166.364 100.184 165.556 100.529 165.396 100.529H164.107C164.062 100.263 164.177 100.389 164.316 100.342C168.701 98.8617 164.972 92.6923 163.218 90.3965C163.354 90.2649 163.582 89.873 163.662 89.6854H163.662Z" fill="url(#paint15_linear_5_147)" fill-opacity="0.5"/>
<path d="M144.729 95.1085C144.046 95.792 143.71 96.5155 143.84 97.5074C143.276 96.7324 142.505 96.3448 141.531 96.4408L142.336 95.2471C142.484 94.7974 142.521 94.4152 142.42 93.953C142.996 94.7334 143.74 95.1414 144.73 95.1094L144.729 95.1085Z" fill="url(#paint16_linear_5_147)"/>
<path d="M169.617 86.2203C168.879 86.9047 168.612 87.6015 168.727 88.6192C168.153 87.8602 167.408 87.4131 166.417 87.5526C166.576 87.1375 166.941 86.9749 167.13 86.5331C167.318 86.0914 167.333 85.7092 167.306 85.2426C167.726 85.4034 167.931 85.8114 168.372 85.9981C168.743 86.1545 169.213 86.2185 169.616 86.2212L169.617 86.2203Z" fill="url(#paint17_linear_5_147)"/>
<path d="M157.44 101.775C156.751 102.294 156.44 102.939 156.55 103.818C156.031 103.129 155.386 102.818 154.507 102.929C155.195 102.409 155.507 101.764 155.396 100.885C155.915 101.574 156.561 101.885 157.44 101.775Z" fill="url(#paint18_linear_5_147)"/>
<path d="M154.773 80.4428C154.127 80.9379 153.774 81.5539 153.885 82.3965L152.933 81.705L151.84 81.5965C152.529 81.0774 152.84 80.4322 152.73 79.5531C153.249 80.2419 153.894 80.553 154.773 80.4428Z" fill="url(#paint19_linear_5_147)"/>
<path d="M174.068 99.5272L179.421 83.8359H184.407L189.91 99.5272H186.772L182.107 85.9209L183.204 86.3938H180.517L181.635 85.9209L177.121 99.5272H174.068ZM177.808 95.3572L178.776 92.7778H185.138L186.084 95.3572H177.808ZM192.284 99.5272V83.8359H195.336V99.5272H192.284ZM203.891 99.5272V83.8359H206.943V99.5272H203.891ZM206.513 92.9928V90.4134L212.79 90.3919V92.9713L206.513 92.9928ZM206.513 86.4153V83.8359H213.091V86.4153H206.513ZM216.094 99.5272V87.8555H219.082V99.5272H216.094ZM214.461 90.0909V87.8555H219.082V90.0909H214.461ZM217.191 86.4583C216.603 86.4583 216.166 86.3078 215.879 86.0069C215.607 85.6917 215.471 85.3047 215.471 84.8462C215.471 84.359 215.607 83.9649 215.879 83.664C216.166 83.363 216.603 83.2126 217.191 83.2126C217.778 83.2126 218.208 83.363 218.48 83.664C218.753 83.9649 218.889 84.359 218.889 84.8462C218.889 85.3047 218.753 85.6917 218.48 86.0069C218.208 86.3078 217.778 86.4583 217.191 86.4583ZM227.749 99.9356C226.746 99.9356 225.864 99.7637 225.105 99.4197C224.36 99.0758 223.736 98.6173 223.235 98.0441C222.748 97.4565 222.375 96.8045 222.117 96.088C221.874 95.3715 221.752 94.6407 221.752 93.8955V93.4871C221.752 92.7133 221.874 91.9682 222.117 91.2517C222.375 90.5208 222.748 89.876 223.235 89.3171C223.736 88.7439 224.353 88.2925 225.083 87.9629C225.814 87.619 226.66 87.4471 227.62 87.4471C228.881 87.4471 229.934 87.7265 230.78 88.2854C231.639 88.8299 232.284 89.5536 232.714 90.4564C233.144 91.3448 233.359 92.3049 233.359 93.3367V94.4114H223.02V92.5844H231.489L230.565 93.4871C230.565 92.742 230.457 92.1043 230.242 91.5741C230.027 91.0439 229.698 90.6355 229.254 90.3489C228.824 90.0623 228.279 89.919 227.62 89.919C226.961 89.919 226.402 90.0695 225.943 90.3704C225.485 90.6713 225.134 91.1084 224.89 91.6816C224.661 92.2404 224.546 92.9139 224.546 93.7021C224.546 94.4329 224.661 95.0849 224.89 95.6581C225.119 96.217 225.47 96.6612 225.943 96.9908C226.416 97.3061 227.018 97.4637 227.749 97.4637C228.48 97.4637 229.074 97.3204 229.533 97.0338C229.992 96.7329 230.285 96.3675 230.414 95.9376H233.166C232.994 96.74 232.664 97.4422 232.177 98.0441C231.69 98.6459 231.066 99.1117 230.307 99.4412C229.562 99.7708 228.709 99.9356 227.749 99.9356ZM240.089 99.8926C238.485 99.8926 237.223 99.5559 236.306 98.8824C235.404 98.1945 234.931 97.2488 234.888 96.045H237.575C237.618 96.4463 237.84 96.8117 238.241 97.1413C238.642 97.4709 239.273 97.6357 240.132 97.6357C240.849 97.6357 241.415 97.5067 241.831 97.2488C242.26 96.9908 242.475 96.6397 242.475 96.1955C242.475 95.8086 242.311 95.5005 241.981 95.2712C241.666 95.0419 241.121 94.8915 240.347 94.8198L239.316 94.7124C238.012 94.5691 237.009 94.1965 236.306 93.5946C235.604 92.9928 235.253 92.1903 235.253 91.1872C235.253 90.3847 235.454 89.7112 235.855 89.1667C236.256 88.6221 236.808 88.2137 237.51 87.9415C238.227 87.6549 239.043 87.5116 239.961 87.5116C241.393 87.5116 242.554 87.8268 243.443 88.4573C244.331 89.0879 244.797 90.0121 244.84 91.2302H242.153C242.124 90.8289 241.924 90.485 241.551 90.1984C241.179 89.9118 240.641 89.7685 239.939 89.7685C239.308 89.7685 238.821 89.8903 238.477 90.1339C238.133 90.3775 237.961 90.6928 237.961 91.0797C237.961 91.4523 238.098 91.7389 238.37 91.9395C238.656 92.1401 239.115 92.2763 239.746 92.3479L240.777 92.4554C242.153 92.5987 243.228 92.9784 244.002 93.5946C244.79 94.2108 245.184 95.0419 245.184 96.088C245.184 96.8619 244.969 97.5354 244.539 98.1086C244.123 98.6674 243.536 99.1045 242.776 99.4197C242.017 99.735 241.121 99.8926 240.089 99.8926ZM252.725 99.6777C251.65 99.6777 250.762 99.5416 250.059 99.2693C249.372 98.9827 248.856 98.5098 248.512 97.8506C248.168 97.1771 247.996 96.2743 247.996 95.1423L248.017 84.5668H250.812L250.79 95.3357C250.79 95.9089 250.941 96.3531 251.242 96.6684C251.557 96.9693 252.001 97.1198 252.574 97.1198H254.401V99.6777H252.725ZM246.147 90.048V87.8555H254.401V90.048H246.147ZM263.939 99.5272V96.0665H263.445V92.2189C263.445 91.5454 263.28 91.0439 262.95 90.7143C262.621 90.3847 262.112 90.2199 261.424 90.2199C261.066 90.2199 260.636 90.2271 260.134 90.2414C259.633 90.2557 259.124 90.2772 258.608 90.3059C258.107 90.3202 257.655 90.3417 257.254 90.3704V87.834C257.584 87.8053 257.956 87.7767 258.372 87.748C258.787 87.7193 259.21 87.705 259.64 87.705C260.084 87.6907 260.5 87.6835 260.887 87.6835C262.09 87.6835 263.086 87.8411 263.874 88.1564C264.677 88.4717 265.279 88.966 265.68 89.6396C266.096 90.3131 266.303 91.1944 266.303 92.2834V99.5272H263.939ZM260.177 99.8282C259.332 99.8282 258.587 99.6777 257.942 99.3768C257.311 99.0758 256.817 98.6459 256.459 98.0871C256.115 97.5282 255.943 96.8547 255.943 96.0665C255.943 95.2067 256.151 94.5046 256.566 93.96C256.996 93.4155 257.591 93.0071 258.35 92.7348C259.124 92.4626 260.027 92.3264 261.059 92.3264H263.767V94.1105H261.016C260.328 94.1105 259.798 94.2825 259.425 94.6264C259.067 94.956 258.888 95.3859 258.888 95.9161C258.888 96.4463 259.067 96.8762 259.425 97.2058C259.798 97.5354 260.328 97.7002 261.016 97.7002C261.431 97.7002 261.811 97.6285 262.155 97.4852C262.513 97.3276 262.807 97.0696 263.036 96.7114C263.28 96.3388 263.416 95.8373 263.445 95.2067L264.175 96.045C264.104 96.8619 263.903 97.5497 263.574 98.1086C263.258 98.6674 262.814 99.0973 262.241 99.3983C261.682 99.6849 260.994 99.8282 260.177 99.8282Z" fill="url(#paint20_linear_5_147)"/>
<defs>
<linearGradient id="paint0_linear_5_147" x1="49.4751" y1="12.9229" x2="49.4751" y2="119.999" gradientUnits="userSpaceOnUse">
<stop stop-color="#6F5AF7"/>
<stop offset="1" stop-color="#A294FF"/>
</linearGradient>
<linearGradient id="paint1_linear_5_147" x1="75.6912" y1="0" x2="75.6912" y2="18.6743" gradientUnits="userSpaceOnUse">
<stop stop-color="#6F5AF7"/>
<stop offset="1" stop-color="#A294FF"/>
</linearGradient>
<linearGradient id="paint2_linear_5_147" x1="75.6912" y1="0" x2="75.6912" y2="18.6743" gradientUnits="userSpaceOnUse">
<stop stop-color="#6F5AF7"/>
<stop offset="1" stop-color="#A294FF"/>
</linearGradient>
<linearGradient id="paint3_linear_5_147" x1="5.91014" y1="104.827" x2="5.91014" y2="117.059" gradientUnits="userSpaceOnUse">
<stop stop-color="#6F5AF7"/>
<stop offset="1" stop-color="#A294FF"/>
</linearGradient>
<linearGradient id="paint4_linear_5_147" x1="5.91014" y1="104.827" x2="5.91014" y2="117.059" gradientUnits="userSpaceOnUse">
<stop stop-color="#6F5AF7"/>
<stop offset="1" stop-color="#A294FF"/>
</linearGradient>
<linearGradient id="paint5_linear_5_147" x1="93.0941" y1="15.979" x2="93.0941" y2="27.9691" gradientUnits="userSpaceOnUse">
<stop stop-color="#6F5AF7"/>
<stop offset="1" stop-color="#A294FF"/>
</linearGradient>
<linearGradient id="paint6_linear_5_147" x1="93.0941" y1="15.979" x2="93.0941" y2="27.9691" gradientUnits="userSpaceOnUse">
<stop stop-color="#6F5AF7"/>
<stop offset="1" stop-color="#A294FF"/>
</linearGradient>
<linearGradient id="paint7_linear_5_147" x1="135.304" y1="98.4061" x2="121.734" y2="80.96" gradientUnits="userSpaceOnUse">
<stop stop-color="#39D47A"/>
<stop offset="1" stop-color="#009CD0"/>
</linearGradient>
<linearGradient id="paint8_linear_5_147" x1="165.139" y1="100.557" x2="151.811" y2="87.9864" gradientUnits="userSpaceOnUse">
<stop stop-color="#39D47A"/>
<stop offset="1" stop-color="#009CD0"/>
</linearGradient>
<linearGradient id="paint9_linear_5_147" x1="158.777" y1="96.3942" x2="145.42" y2="83.8149" gradientUnits="userSpaceOnUse">
<stop stop-color="#39D47A"/>
<stop offset="1" stop-color="#009CD0"/>
</linearGradient>
<linearGradient id="paint10_linear_5_147" x1="160.923" y1="101.206" x2="152.879" y2="88.3573" gradientUnits="userSpaceOnUse">
<stop stop-color="#39D47A"/>
<stop offset="1" stop-color="#009CD0"/>
</linearGradient>
<linearGradient id="paint11_linear_5_147" x1="164.484" y1="91.1949" x2="156.414" y2="78.3243" gradientUnits="userSpaceOnUse">
<stop stop-color="#39D47A"/>
<stop offset="1" stop-color="#009CD0"/>
</linearGradient>
<linearGradient id="paint12_linear_5_147" x1="147.129" y1="95.4634" x2="139.69" y2="93.0795" gradientUnits="userSpaceOnUse">
<stop stop-color="#39D47A"/>
<stop offset="1" stop-color="#009CD0"/>
</linearGradient>
<linearGradient id="paint13_linear_5_147" x1="147.928" y1="93.6037" x2="141.396" y2="91.4666" gradientUnits="userSpaceOnUse">
<stop stop-color="#39D47A"/>
<stop offset="1" stop-color="#009CD0"/>
</linearGradient>
<linearGradient id="paint14_linear_5_147" x1="168.76" y1="100.173" x2="160.445" y2="96.8249" gradientUnits="userSpaceOnUse">
<stop stop-color="#39D47A"/>
<stop offset="1" stop-color="#009CD0"/>
</linearGradient>
<linearGradient id="paint15_linear_5_147" x1="167.509" y1="100.529" x2="160.089" y2="97.5932" gradientUnits="userSpaceOnUse">
<stop stop-color="#39D47A"/>
<stop offset="1" stop-color="#009CD0"/>
</linearGradient>
<linearGradient id="paint16_linear_5_147" x1="144.73" y1="97.5074" x2="141.195" y2="94.3252" gradientUnits="userSpaceOnUse">
<stop stop-color="#39D47A"/>
<stop offset="1" stop-color="#009CD0"/>
</linearGradient>
<linearGradient id="paint17_linear_5_147" x1="169.617" y1="88.6192" x2="166.245" y2="85.4241" gradientUnits="userSpaceOnUse">
<stop stop-color="#39D47A"/>
<stop offset="1" stop-color="#009CD0"/>
</linearGradient>
<linearGradient id="paint18_linear_5_147" x1="157.44" y1="103.818" x2="154.507" y2="100.885" gradientUnits="userSpaceOnUse">
<stop stop-color="#39D47A"/>
<stop offset="1" stop-color="#009CD0"/>
</linearGradient>
<linearGradient id="paint19_linear_5_147" x1="154.773" y1="82.3965" x2="151.931" y2="79.4647" gradientUnits="userSpaceOnUse">
<stop stop-color="#39D47A"/>
<stop offset="1" stop-color="#009CD0"/>
</linearGradient>
<linearGradient id="paint20_linear_5_147" x1="268.681" y1="102.527" x2="259.83" y2="62.4839" gradientUnits="userSpaceOnUse">
<stop stop-color="#39D47A"/>
<stop offset="1" stop-color="#009CD0"/>
</linearGradient>
</defs>
</svg>
