<svg width="874" height="874" viewBox="0 0 874 874" fill="none" xmlns="http://www.w3.org/2000/svg">
<path d="M418.953 170.353C430.023 163.93 443.687 163.93 454.758 170.353L689.848 306.747C700.848 313.129 707.619 324.886 707.619 337.604V588.521C707.619 595.121 701.44 599.984 695.103 598.142C687.717 595.995 680.446 593.562 673.27 590.86C669.375 589.393 666.849 585.634 666.849 581.472V394.313C666.849 385.036 655.205 380.352 648.331 386.583C602.432 428.188 545.955 453.801 489.284 476.06C482.301 478.802 480.511 487.882 485.995 493C552.677 555.231 616.901 606.872 702.662 618.026C713.806 619.475 721.648 629.715 720.177 640.897C718.705 652.078 708.477 659.968 697.333 658.519C587.753 644.267 510.066 572.456 436.576 502.504C433.724 499.789 429.564 498.959 425.892 500.379C355.256 527.702 288.429 557.077 236.483 610.87C232.005 615.507 233.216 623.052 238.791 626.286L431.74 738.232C434.903 740.067 438.807 740.067 441.97 738.232L594.398 649.795C597.408 648.048 601.098 647.966 604.208 649.527C611.106 652.987 618.107 656.28 625.219 659.388C633.1 662.831 633.98 673.965 626.542 678.281L454.758 777.948L454.237 778.244C443.435 784.272 430.276 784.272 419.474 778.244L418.953 777.948L183.863 641.553C173.035 635.27 166.305 623.78 166.098 611.292L166.093 610.697V363.157C166.093 356.399 172.551 351.513 178.982 353.591C186.284 355.951 193.466 358.528 200.542 361.308C204.381 362.817 206.862 366.547 206.862 370.671V557.619C206.862 566.789 218.215 571.468 225.04 565.343C272.727 522.546 328.656 495.466 384.094 473.015C391.044 470.2 392.771 461.115 387.241 456.051C323.681 397.848 257.587 347.414 169.492 330.534C158.455 328.42 151.239 317.727 153.374 306.653C155.509 295.578 166.186 288.314 177.223 290.429C287.484 311.556 366.122 379.627 436.788 446.382C439.635 449.072 443.771 449.896 447.43 448.499C523.146 419.595 591.148 391.727 639.227 338.068C643.403 333.407 642.067 326.16 636.654 323.019L441.97 210.067C438.807 208.232 434.903 208.232 431.74 210.067L275.588 300.664C272.614 302.389 268.974 302.492 265.885 300.982C258.872 297.553 251.747 294.267 244.503 291.143C236.618 287.741 235.747 276.644 243.175 272.335L418.953 170.353Z" fill="#1A83FE"/>
<path d="M418.953 170.353C430.023 163.93 443.687 163.93 454.758 170.353L689.848 306.747C700.848 313.129 707.619 324.886 707.619 337.604V588.521C707.619 595.121 701.44 599.984 695.103 598.142C687.717 595.995 680.446 593.562 673.27 590.86C669.375 589.393 666.849 585.634 666.849 581.472V394.313C666.849 385.036 655.205 380.352 648.331 386.583C602.432 428.188 545.955 453.801 489.284 476.06C482.301 478.802 480.511 487.882 485.995 493C552.677 555.231 616.901 606.872 702.662 618.026C713.806 619.475 721.648 629.715 720.177 640.897C718.705 652.078 708.477 659.968 697.333 658.519C587.753 644.267 510.066 572.456 436.576 502.504C433.724 499.789 429.564 498.959 425.892 500.379C355.256 527.702 288.429 557.077 236.483 610.87C232.005 615.507 233.216 623.052 238.791 626.286L431.74 738.232C434.903 740.067 438.807 740.067 441.97 738.232L594.398 649.795C597.408 648.048 601.098 647.966 604.208 649.527C611.106 652.987 618.107 656.28 625.219 659.388C633.1 662.831 633.98 673.965 626.542 678.281L454.758 777.948L454.237 778.244C443.435 784.272 430.276 784.272 419.474 778.244L418.953 777.948L183.863 641.553C173.035 635.27 166.305 623.78 166.098 611.292L166.093 610.697V363.157C166.093 356.399 172.551 351.513 178.982 353.591C186.284 355.951 193.466 358.528 200.542 361.308C204.381 362.817 206.862 366.547 206.862 370.671V557.619C206.862 566.789 218.215 571.468 225.04 565.343C272.727 522.546 328.656 495.466 384.094 473.015C391.044 470.2 392.771 461.115 387.241 456.051C323.681 397.848 257.587 347.414 169.492 330.534C158.455 328.42 151.239 317.727 153.374 306.653C155.509 295.578 166.186 288.314 177.223 290.429C287.484 311.556 366.122 379.627 436.788 446.382C439.635 449.072 443.771 449.896 447.43 448.499C523.146 419.595 591.148 391.727 639.227 338.068C643.403 333.407 642.067 326.16 636.654 323.019L441.97 210.067C438.807 208.232 434.903 208.232 431.74 210.067L275.588 300.664C272.614 302.389 268.974 302.492 265.885 300.982C258.872 297.553 251.747 294.267 244.503 291.143C236.618 287.741 235.747 276.644 243.175 272.335L418.953 170.353Z" fill="url(#paint0_linear_49_7758)"/>
<path d="M587.689 92.2744C588.72 93.4479 589.631 95.0104 590.46 96.8467C591.491 99.1298 592.375 101.782 593.213 104.526C594.046 107.252 594.842 110.098 595.68 112.687C596.519 115.28 597.421 117.687 598.492 119.574C606.727 134.084 622.28 139.481 636.603 143.905C620.531 149.852 611.09 154.904 604.521 162.599C597.861 170.399 594.213 180.855 589.452 197.461C587.28 195.121 585.703 191.308 584.393 187.146C583.672 184.856 583.043 182.502 582.438 180.282C581.835 178.072 581.255 175.987 580.634 174.272C577.226 164.853 570.12 158.401 561.896 153.343C554.417 148.743 545.911 145.239 538.365 141.727C554.285 140.282 564.894 135.514 572.365 127.365C579.986 119.052 584.261 107.303 587.689 92.2744Z" fill="#1A83FE"/>
<path d="M587.689 92.2744C588.72 93.4479 589.631 95.0104 590.46 96.8467C591.491 99.1298 592.375 101.782 593.213 104.526C594.046 107.252 594.842 110.098 595.68 112.687C596.519 115.28 597.421 117.687 598.492 119.574C606.727 134.084 622.28 139.481 636.603 143.905C620.531 149.852 611.09 154.904 604.521 162.599C597.861 170.399 594.213 180.855 589.452 197.461C587.28 195.121 585.703 191.308 584.393 187.146C583.672 184.856 583.043 182.502 582.438 180.282C581.835 178.072 581.255 175.987 580.634 174.272C577.226 164.853 570.12 158.401 561.896 153.343C554.417 148.743 545.911 145.239 538.365 141.727C554.285 140.282 564.894 135.514 572.365 127.365C579.986 119.052 584.261 107.303 587.689 92.2744Z" fill="url(#paint1_linear_49_7758)"/>
<path d="M587.689 92.2744C588.72 93.4479 589.631 95.0104 590.46 96.8467C591.491 99.1298 592.375 101.782 593.213 104.526C594.046 107.252 594.842 110.098 595.68 112.687C596.519 115.28 597.421 117.687 598.492 119.574C606.727 134.084 622.28 139.481 636.603 143.905C620.531 149.852 611.09 154.904 604.521 162.599C597.861 170.399 594.213 180.855 589.452 197.461C587.28 195.121 585.703 191.308 584.393 187.146C583.672 184.856 583.043 182.502 582.438 180.282C581.835 178.072 581.255 175.987 580.634 174.272C577.226 164.853 570.12 158.401 561.896 153.343C554.417 148.743 545.911 145.239 538.365 141.727C554.285 140.282 564.894 135.514 572.365 127.365C579.986 119.052 584.261 107.303 587.689 92.2744Z" stroke="#1A83FE" stroke-width="1.27405"/>
<path d="M587.689 92.2744C588.72 93.4479 589.631 95.0104 590.46 96.8467C591.491 99.1298 592.375 101.782 593.213 104.526C594.046 107.252 594.842 110.098 595.68 112.687C596.519 115.28 597.421 117.687 598.492 119.574C606.727 134.084 622.28 139.481 636.603 143.905C620.531 149.852 611.09 154.904 604.521 162.599C597.861 170.399 594.213 180.855 589.452 197.461C587.28 195.121 585.703 191.308 584.393 187.146C583.672 184.856 583.043 182.502 582.438 180.282C581.835 178.072 581.255 175.987 580.634 174.272C577.226 164.853 570.12 158.401 561.896 153.343C554.417 148.743 545.911 145.239 538.365 141.727C554.285 140.282 564.894 135.514 572.365 127.365C579.986 119.052 584.261 107.303 587.689 92.2744Z" stroke="url(#paint2_linear_49_7758)" stroke-width="1.27405"/>
<path d="M185.191 696.695C185.919 697.553 186.612 698.712 187.282 700.104C188.209 702.029 189.061 704.323 189.904 706.717C190.743 709.099 191.574 711.587 192.448 713.848C193.321 716.107 194.255 718.192 195.317 719.774C198.039 723.827 201.862 726.254 206.041 727.922C209.58 729.335 213.421 730.221 217.087 731.081C207.724 734.997 201.502 737.922 197.093 742.495C192.447 747.313 189.871 753.895 187.567 765.133L186.722 765.183C184.86 759.309 183.494 754.765 182.139 751.15C180.744 747.429 179.338 744.63 177.361 742.308C173.606 737.897 167.875 735.322 156.668 731.167C166.49 727.981 172.952 724.86 177.279 719.808C181.693 714.655 183.811 707.586 185.191 696.695Z" fill="#1A83FE"/>
<path d="M185.191 696.695C185.919 697.553 186.612 698.712 187.282 700.104C188.209 702.029 189.061 704.323 189.904 706.717C190.743 709.099 191.574 711.587 192.448 713.848C193.321 716.107 194.255 718.192 195.317 719.774C198.039 723.827 201.862 726.254 206.041 727.922C209.58 729.335 213.421 730.221 217.087 731.081C207.724 734.997 201.502 737.922 197.093 742.495C192.447 747.313 189.871 753.895 187.567 765.133L186.722 765.183C184.86 759.309 183.494 754.765 182.139 751.15C180.744 747.429 179.338 744.63 177.361 742.308C173.606 737.897 167.875 735.322 156.668 731.167C166.49 727.981 172.952 724.86 177.279 719.808C181.693 714.655 183.811 707.586 185.191 696.695Z" fill="url(#paint3_linear_49_7758)"/>
<path d="M185.191 696.695C185.919 697.553 186.612 698.712 187.282 700.104C188.209 702.029 189.061 704.323 189.904 706.717C190.743 709.099 191.574 711.587 192.448 713.848C193.321 716.107 194.255 718.192 195.317 719.774C198.039 723.827 201.862 726.254 206.041 727.922C209.58 729.335 213.421 730.221 217.087 731.081C207.724 734.997 201.502 737.922 197.093 742.495C192.447 747.313 189.871 753.895 187.567 765.133L186.722 765.183C184.86 759.309 183.494 754.765 182.139 751.15C180.744 747.429 179.338 744.63 177.361 742.308C173.606 737.897 167.875 735.322 156.668 731.167C166.49 727.981 172.952 724.86 177.279 719.808C181.693 714.655 183.811 707.586 185.191 696.695Z" stroke="#1A83FE" stroke-width="1.27405"/>
<path d="M185.191 696.695C185.919 697.553 186.612 698.712 187.282 700.104C188.209 702.029 189.061 704.323 189.904 706.717C190.743 709.099 191.574 711.587 192.448 713.848C193.321 716.107 194.255 718.192 195.317 719.774C198.039 723.827 201.862 726.254 206.041 727.922C209.58 729.335 213.421 730.221 217.087 731.081C207.724 734.997 201.502 737.922 197.093 742.495C192.447 747.313 189.871 753.895 187.567 765.133L186.722 765.183C184.86 759.309 183.494 754.765 182.139 751.15C180.744 747.429 179.338 744.63 177.361 742.308C173.606 737.897 167.875 735.322 156.668 731.167C166.49 727.981 172.952 724.86 177.279 719.808C181.693 714.655 183.811 707.586 185.191 696.695Z" stroke="url(#paint4_linear_49_7758)" stroke-width="1.27405"/>
<path d="M690.235 184.968C691.862 188.811 692.675 192.179 693.768 196.001C695.008 200.335 696.592 205.179 700.113 211.776L700.189 211.92L700.326 212.009C705.215 215.211 711.66 218.421 717.06 221.23C706.894 224.461 701.574 226.959 698.137 231.165C696.34 233.365 695.084 235.999 693.894 239.362C692.748 242.604 691.644 246.579 690.185 251.545L689.189 251.418C687.598 245.941 684.718 238.857 682.727 233.527L682.668 233.367L682.536 233.259L681.609 232.502C677.046 228.812 673.519 226.527 669.777 224.676C666.246 222.929 662.531 221.574 657.61 219.787C668.969 216.755 675.504 213.802 679.999 208.688C684.505 203.562 686.898 196.326 690.235 184.968Z" fill="#1A83FE"/>
<path d="M690.235 184.968C691.862 188.811 692.675 192.179 693.768 196.001C695.008 200.335 696.592 205.179 700.113 211.776L700.189 211.92L700.326 212.009C705.215 215.211 711.66 218.421 717.06 221.23C706.894 224.461 701.574 226.959 698.137 231.165C696.34 233.365 695.084 235.999 693.894 239.362C692.748 242.604 691.644 246.579 690.185 251.545L689.189 251.418C687.598 245.941 684.718 238.857 682.727 233.527L682.668 233.367L682.536 233.259L681.609 232.502C677.046 228.812 673.519 226.527 669.777 224.676C666.246 222.929 662.531 221.574 657.61 219.787C668.969 216.755 675.504 213.802 679.999 208.688C684.505 203.562 686.898 196.326 690.235 184.968Z" fill="url(#paint5_linear_49_7758)"/>
<path d="M690.235 184.968C691.862 188.811 692.675 192.179 693.768 196.001C695.008 200.335 696.592 205.179 700.113 211.776L700.189 211.92L700.326 212.009C705.215 215.211 711.66 218.421 717.06 221.23C706.894 224.461 701.574 226.959 698.137 231.165C696.34 233.365 695.084 235.999 693.894 239.362C692.748 242.604 691.644 246.579 690.185 251.545L689.189 251.418C687.598 245.941 684.718 238.857 682.727 233.527L682.668 233.367L682.536 233.259L681.609 232.502C677.046 228.812 673.519 226.527 669.777 224.676C666.246 222.929 662.531 221.574 657.61 219.787C668.969 216.755 675.504 213.802 679.999 208.688C684.505 203.562 686.898 196.326 690.235 184.968Z" stroke="#1A83FE" stroke-width="1.27405"/>
<path d="M690.235 184.968C691.862 188.811 692.675 192.179 693.768 196.001C695.008 200.335 696.592 205.179 700.113 211.776L700.189 211.92L700.326 212.009C705.215 215.211 711.66 218.421 717.06 221.23C706.894 224.461 701.574 226.959 698.137 231.165C696.34 233.365 695.084 235.999 693.894 239.362C692.748 242.604 691.644 246.579 690.185 251.545L689.189 251.418C687.598 245.941 684.718 238.857 682.727 233.527L682.668 233.367L682.536 233.259L681.609 232.502C677.046 228.812 673.519 226.527 669.777 224.676C666.246 222.929 662.531 221.574 657.61 219.787C668.969 216.755 675.504 213.802 679.999 208.688C684.505 203.562 686.898 196.326 690.235 184.968Z" stroke="url(#paint6_linear_49_7758)" stroke-width="1.27405"/>
<defs>
<linearGradient id="paint0_linear_49_7758" x1="436.856" y1="165.535" x2="436.856" y2="782.765" gradientUnits="userSpaceOnUse">
<stop stop-color="#6F5AF7"/>
<stop offset="1" stop-color="#A294FF"/>
</linearGradient>
<linearGradient id="paint1_linear_49_7758" x1="587.263" y1="91" x2="587.263" y2="198.658" gradientUnits="userSpaceOnUse">
<stop stop-color="#6F5AF7"/>
<stop offset="1" stop-color="#A294FF"/>
</linearGradient>
<linearGradient id="paint2_linear_49_7758" x1="587.263" y1="91" x2="587.263" y2="198.658" gradientUnits="userSpaceOnUse">
<stop stop-color="#6F5AF7"/>
<stop offset="1" stop-color="#A294FF"/>
</linearGradient>
<linearGradient id="paint3_linear_49_7758" x1="186.93" y1="695.332" x2="186.93" y2="765.849" gradientUnits="userSpaceOnUse">
<stop stop-color="#6F5AF7"/>
<stop offset="1" stop-color="#A294FF"/>
</linearGradient>
<linearGradient id="paint4_linear_49_7758" x1="186.93" y1="695.332" x2="186.93" y2="765.849" gradientUnits="userSpaceOnUse">
<stop stop-color="#6F5AF7"/>
<stop offset="1" stop-color="#A294FF"/>
</linearGradient>
<linearGradient id="paint5_linear_49_7758" x1="687.096" y1="183.123" x2="687.096" y2="252.246" gradientUnits="userSpaceOnUse">
<stop stop-color="#6F5AF7"/>
<stop offset="1" stop-color="#A294FF"/>
</linearGradient>
<linearGradient id="paint6_linear_49_7758" x1="687.096" y1="183.123" x2="687.096" y2="252.246" gradientUnits="userSpaceOnUse">
<stop stop-color="#6F5AF7"/>
<stop offset="1" stop-color="#A294FF"/>
</linearGradient>
</defs>
</svg>
